<?xml version="1.0" encoding="utf-8"?>
<!-- Generator: Adobe Illustrator 22.0.1, SVG Export Plug-In . SVG Version: 6.00 Build 0)  -->
<svg version="1.1" id="Capa_1" xmlns="http://www.w3.org/2000/svg" xmlns:xlink="http://www.w3.org/1999/xlink" x="0px" y="0px"
	 viewBox="0 0 24 24" style="enable-background:new 0 0 24 24;" xml:space="preserve">
<style type="text/css">
	.st0{fill:#F20A44;}
	.st1{fill:#660632;}
</style>
<title>Adobe Photoshop icon</title>
<rect y="0.3" class="st0" width="24" height="23.4"/>
<rect x="1" y="1.3" class="st1" width="22" height="21.4"/>
<path class="st0" d="M8.7,6.3H5.9c-0.1,0-0.2,0.1-0.2,0.2v10.9c0,0.1,0.1,0.2,0.2,0.2h1.3c0.1,0,0.2-0.1,0.2-0.2v-3.8
	c0-0.1,0.1-0.2,0.2-0.2h1.2c2,0,3.6-1.1,3.6-3.7C12.4,7.2,10.8,6.3,8.7,6.3z M8.7,11.9H7.6c-0.1,0-0.2-0.1-0.2-0.2V7.9h1.2
	c1.4,0,2.1,0.5,2.1,1.9C10.7,11.2,10.1,11.9,8.7,11.9z"/>
<path class="st0" d="M16.1,14.2h-1c-0.7,0-0.9-0.2-0.9-0.5c0-0.3,0.1-0.4,0.3-0.6c0.3,0.1,0.5,0.2,0.8,0.2c1.2,0,2.2-0.7,2.2-2
	c0-0.4-0.1-0.8-0.3-1H18c0.1,0,0.1-0.1,0.1-0.1V9.4c0-0.1-0.1-0.1-0.1-0.1h-1.9c0,0,0,0,0,0c-0.2-0.1-0.5-0.1-0.8-0.1
	c-1.2,0-2.3,0.8-2.3,2.1c0,0.7,0.4,1.2,0.8,1.5v0C13.3,13,13,13.4,13,13.9c0,0.5,0.2,0.8,0.5,1v0c-0.5,0.3-0.8,0.8-0.8,1.2
	c0,1,1,1.5,2.4,1.5c1.9,0,3.1-0.9,3.1-2.1C18.3,14.6,17.5,14.2,16.1,14.2z M15.2,10.1c0.6,0,1,0.4,1,1.1c0,0.7-0.5,1.2-1,1.2
	c-0.6,0-1-0.4-1-1.2C14.2,10.5,14.6,10.1,15.2,10.1z M15.3,16.8c-0.9,0-1.5-0.3-1.5-0.8c0-0.3,0.1-0.5,0.5-0.8
	c0.2,0.1,0.5,0.1,0.8,0.1h0.8c0.7,0,1,0.1,1,0.6C16.9,16.3,16.3,16.8,15.3,16.8z"/>
</svg>
