<svg xmlns="http://www.w3.org/2000/svg" viewBox="0 0 24 24"><linearGradient id="a" gradientUnits="userSpaceOnUse" x1="18.053" y1="-2.314" x2="5.362" y2="27.347"><stop offset="0" stop-color="#2e51c8"/><stop offset=".2" stop-color="#4c68d7"/><stop offset=".4" stop-color="#8a3ab9"/><stop offset=".6" stop-color="#e95950"/><stop offset=".8" stop-color="#fbad50"/><stop offset="1" stop-color="#fccc63"/></linearGradient><path d="M12 0C8.7 0 8.3 0 7.1.1c-1.3 0-2.2.2-3 .5C3.4.9 2.7 1.3 2 2S.9 3.3.6 4.1s-.5 1.7-.5 3C0 8.3 0 8.7 0 12s0 3.7.1 4.9c.1 1.3.3 2.1.6 2.9.2.8.6 1.5 1.3 2.2s1.3 1.1 2.1 1.4 1.6.5 2.9.6h5c3.3 0 3.7 0 4.9-.1 1.3-.1 2.1-.3 2.9-.6.8-.3 1.5-.7 2.1-1.4.7-.7 1.1-1.3 1.4-2.1.3-.8.5-1.6.6-2.9.1-1.2.1-1.6.1-4.9s0-3.7-.1-4.9c-.1-1.3-.3-2.1-.6-2.9-.2-.8-.6-1.5-1.3-2.2S20.7.9 19.9.6C19.1.3 18.3.1 17 0h-5zm0 2.2c3.2 0 3.6 0 4.9.1 1.2.1 1.8.2 2.2.4.6.2 1 .5 1.4.9s.7.8.9 1.4c.2.4.4 1.1.4 2.2.1 1.3.1 1.6.1 4.8s0 3.6-.1 4.9c-.1 1.2-.3 1.8-.4 2.2-.2.6-.5 1-.9 1.4s-.8.7-1.4.9c-.4.2-1.1.4-2.2.4-1.3.1-1.6.1-4.9.1-3.2 0-3.6 0-4.9-.1-1.2-.1-1.8-.3-2.2-.4-.6-.2-1-.5-1.4-.9s-.7-.8-.9-1.4c-.2-.4-.4-1.1-.4-2.2 0-1.3-.1-1.6-.1-4.8s0-3.6.1-4.9c0-1.2.2-1.9.4-2.3.2-.6.5-1 .9-1.4s.8-.7 1.4-.9c.4-.2 1.1-.4 2.2-.4 1.3-.1 1.6-.1 4.9 0 0-.1 0 0 0 0zm0 3.6c-3.4 0-6.2 2.8-6.2 6.2s2.8 6.2 6.2 6.2 6.2-2.8 6.2-6.2-2.8-6.2-6.2-6.2zM12 16c-2.2 0-4-1.8-4-4s1.8-4 4-4 4 1.8 4 4-1.8 4-4 4zm7.8-10.4c0 .8-.6 1.4-1.4 1.4S17 6.4 17 5.6s.6-1.4 1.4-1.4c.8 0 1.4.6 1.4 1.4z" fill="url(#a)"/></svg>