<svg version="1.1" id="Capa_1" xmlns="http://www.w3.org/2000/svg" x="0" y="0" viewBox="0 0 24 24" xml:space="preserve"><style>.st0{fill:#f20a44}</style><path class="st0" d="M0 .3h24v23.4H0z"/><path fill="#660632" d="M1 1.3h22v21.4H1z"/><path class="st0" d="M8.7 6.3H5.9c-.1 0-.2.1-.2.2v10.9c0 .1.1.2.2.2h1.3c.1 0 .2-.1.2-.2v-3.8c0-.1.1-.2.2-.2h1.2c2 0 3.6-1.1 3.6-3.7 0-2.5-1.6-3.4-3.7-3.4zm0 5.6H7.6c-.1 0-.2-.1-.2-.2V7.9h1.2c1.4 0 2.1.5 2.1 1.9s-.6 2.1-2 2.1zm7.4 2.3h-1c-.7 0-.9-.2-.9-.5s.1-.4.3-.6c.3.1.5.2.8.2 1.2 0 2.2-.7 2.2-2 0-.4-.1-.8-.3-1h.8c.1 0 .1-.1.1-.1v-.8c0-.1-.1-.1-.1-.1h-1.9c-.2-.1-.5-.1-.8-.1-1.2 0-2.3.8-2.3 2.1 0 .7.4 1.2.8 1.5-.5.2-.8.6-.8 1.1 0 .5.2.8.5 1-.5.3-.8.8-.8 1.2 0 1 1 1.5 2.4 1.5 1.9 0 3.1-.9 3.1-2.1.1-.9-.7-1.3-2.1-1.3zm-.9-4.1c.6 0 1 .4 1 1.1 0 .7-.5 1.2-1 1.2-.6 0-1-.4-1-1.2 0-.7.4-1.1 1-1.1zm.1 6.7c-.9 0-1.5-.3-1.5-.8 0-.3.1-.5.5-.8.2.1.5.1.8.1h.8c.7 0 1 .1 1 .6 0 .4-.6.9-1.6.9z"/></svg>